<svg xmlns="http://www.w3.org/2000/svg" width="30" height="30" viewBox="0 0 30 30">
    <path fill="#FFF" fill-rule="nonzero" d="M28.776 13.825h-2.13a11.696 11.696 0 0 0-2.642-6.356l1.508-1.511a1.125 1.125 0 1 0-1.593-1.59L22.411 5.88a11.698 11.698 0 0 0-6.335-2.625v-2.13a1.125 1.125 0 0 0-2.25 0v2.13a11.698 11.698 0 0 0-6.357 2.642L5.958 4.389a1.125 1.125 0 1 0-1.59 1.593L5.88 7.489a11.698 11.698 0 0 0-2.625 6.336h-2.13a1.125 1.125 0 0 0 0 2.25h2.13a11.696 11.696 0 0 0 2.642 6.357l-1.508 1.51a1.125 1.125 0 1 0 1.593 1.59l1.507-1.511a11.697 11.697 0 0 0 6.337 2.624v2.13a1.125 1.125 0 0 0 2.25 0v-2.13a11.696 11.696 0 0 0 6.356-2.641l1.511 1.508a1.121 1.121 0 0 0 1.59-.002 1.125 1.125 0 0 0 0-1.59L24.02 22.41a11.697 11.697 0 0 0 2.624-6.336h2.13a1.125 1.125 0 0 0 0-2.25zm-5.15 0h-5.02a3.815 3.815 0 0 0-.278-.667l3.544-3.552a8.705 8.705 0 0 1 1.754 4.22zm-3.347-5.808l-3.544 3.552a3.797 3.797 0 0 0-.66-.274v-5.02a8.705 8.705 0 0 1 4.204 1.742zm-6.454-1.742v5.02a3.81 3.81 0 0 0-.667.278L9.606 8.029a8.706 8.706 0 0 1 4.22-1.754zM8.017 9.622l3.552 3.543c-.111.21-.204.43-.274.66h-5.02a8.705 8.705 0 0 1 1.742-4.203zm-1.742 6.453h5.02c.071.233.165.456.278.668l-3.544 3.551a8.705 8.705 0 0 1-1.754-4.219zm3.347 5.809l3.543-3.552c.21.11.43.203.66.274v5.02a8.703 8.703 0 0 1-4.203-1.742zm6.453 1.742v-5.02c.233-.071.456-.165.668-.278l3.551 3.544a8.703 8.703 0 0 1-4.219 1.754zm5.809-3.347l-3.552-3.544c.11-.209.203-.43.274-.66h5.02a8.705 8.705 0 0 1-1.742 4.204z"/>
</svg>
