<?xml version="1.0" encoding="utf-8"?>
<!-- Generator: Adobe Illustrator 16.0.0, SVG Export Plug-In . SVG Version: 6.00 Build 0)  -->
<!DOCTYPE svg PUBLIC "-//W3C//DTD SVG 1.1//EN" "http://www.w3.org/Graphics/SVG/1.1/DTD/svg11.dtd">
<svg version="1.1" id="Layer_1" xmlns="http://www.w3.org/2000/svg" xmlns:xlink="http://www.w3.org/1999/xlink" x="0px" y="0px"
	 width="658.313px" height="51.854px" viewBox="0 0 658.313 51.854" enable-background="new 0 0 658.313 51.854"
	 xml:space="preserve">
<g>
	<g>
		<defs>
			<rect id="SVGID_1_" y="0" width="658.313" height="51.851"/>
		</defs>
		<clipPath id="SVGID_2_">
			<use xlink:href="#SVGID_1_"  overflow="visible"/>
		</clipPath>
		<path clip-path="url(#SVGID_2_)" fill="#F8F7F2" d="M658.313,51.851v-6.127H625.58V0h-6.903V51.85L658.313,51.851L658.313,51.851z
			 M604.251,51.851v-6.127H571.52V0h-6.903V51.85L604.251,51.851L604.251,51.851z M547.083,51.851v-6.127h-36.609V27.612h32.889
			v-6.127h-32.889V6.128h36.64V0h-43.545V51.85L547.083,51.851L547.083,51.851z M445.173,51.851l17.876-22.302l17.414,22.302h8.804
			l-21.758-27.146L487.909,0h-8.34l-16.132,20.168L447.733,0h-8.728l19.935,25.013L436.833,51.85L445.173,51.851L445.173,51.851z
			 M423.969,51.851v-6.127h-36.609V27.612h32.834v-6.127h-32.834V6.128h36.585V0h-43.488V51.85L423.969,51.851L423.969,51.851z
			 M322.51,51.851v-39.79h0.077l32.961,39.789h6.286V0h-6.902v39.79h-0.078L321.888,0h-6.281V51.85L322.51,51.851L322.51,51.851z
			 M293.23,0h-6.905V51.85h6.905V0z M227.419,6.128H249.1c4.031,0,7.109,1.058,9.228,3.172c1.631,1.702,2.443,3.717,2.443,6.038
			c0,2.556-0.95,4.74-2.849,6.56c-1.9,1.817-4.26,2.729-7.077,2.729h-23.426V6.128z M227.419,51.851V30.755h21.138l11.906,21.097
			h7.871l-12.796-21.953c3.695-1.013,6.642-2.812,8.839-5.398c2.199-2.587,3.299-5.612,3.299-9.084
			c0-3.985-1.321-7.377-3.963-10.173c-3.34-3.493-8.197-5.242-14.567-5.242h-28.627v51.851H227.419z M177.394,8.104h0.465
			l10.239,22.607h-20.944L177.394,8.104z M157.692,51.851l6.979-15.588h25.908l7.056,15.588h7.565L181.117,0.001h-6.515
			l-24.045,51.851H157.692z M88.546,51.851V12.525h0.389l18.731,31.528h1.435l18.77-31.528h0.388V51.85h6.902V0h-6.98
			l-19.388,32.613h-0.158L89.244,0h-7.29V51.85L88.546,51.851L88.546,51.851z"/>
	</g>
</g>
<rect y="0" fill="#476EBA" width="53.196" height="38.769"/>
<rect y="38.768" fill="#F8F7F2" width="53.196" height="6.651"/>
<rect y="45.403" fill="#D24E3C" width="53.196" height="6.221"/>
</svg>
